<?xml version="1.0" encoding="UTF-8"?>
<svg id="Capa_1" xmlns="http://www.w3.org/2000/svg" version="1.1" viewBox="0 0 821.5 236">
  <!-- Generator: Adobe Illustrator 29.1.0, SVG Export Plug-In . SVG Version: 2.1.0 Build 142)  -->
  <defs>
    <style>
      .st0 {
        fill: #fff;
      }
    </style>
  </defs>
  <path class="st0" d="M.5,79.6v-17.8h28l22.8,3,1.6-3.6-18.5-13.9L14.7,27.1l12.5-12.2,19.8,19.8,14.2,18.2,3.6-1.7-3-22.8V.4h17.8v28.1l-3,22.8,3.6,1.7,14.2-18.2,19.8-19.8,12.5,12.2-19.8,20.1-18.5,13.9,1.6,3.6,22.8-3h28v17.8h-28l-22.8-2.6-1.6,3.3,18.5,14.2,19.8,19.8-12.5,12.5-19.8-19.8-14.2-18.5-3.6,1.7,3,22.8v28.1h-17.8v-28.1l3-22.8-3.6-1.7-14.2,18.5-19.8,19.8-12.5-12.5,19.8-19.8,18.5-14.2-1.6-3.3-22.8,2.6H.5ZM170.6,231.4V.4h26.1v95.4h4.6c2.2-4.8,5.5-9.4,9.9-13.5,4.6-4.4,10.4-8,17.5-10.9,7.3-2.9,16.4-4.3,27.4-4.3s22.9,2.6,32.3,7.9c9.7,5.1,17.4,12.5,23.1,22.4,5.7,9.7,8.6,21.8,8.6,36.3v97.7h-26.1v-95.7c0-16.1-4.1-27.7-12.2-35-7.9-7.3-18.7-10.9-32.3-10.9s-28.4,5.1-38.3,15.2c-9.7,10.1-14.5,25.2-14.5,45.2v81.2h-26.1ZM424.4,236c-16.3,0-30.7-3.4-43.2-10.2-12.3-6.8-22-16.4-29-28.7-6.8-12.5-10.2-27.3-10.2-44.2v-4.3c0-16.7,3.4-31.3,10.2-43.9,7-12.5,16.7-22.2,29-29,12.5-6.8,27-10.2,43.2-10.2s30.6,3.4,42.9,10.2c12.5,6.8,22.2,16.5,29,29,7,12.5,10.6,27.2,10.6,43.9v4.3c0,16.9-3.5,31.7-10.6,44.2-6.8,12.3-16.5,21.9-29,28.7-12.3,6.8-26.6,10.2-42.9,10.2ZM424.4,212.6c17.2,0,30.8-5.4,40.9-16.2,10.3-11,15.5-25.7,15.5-44.2v-3c0-18.5-5.2-33.1-15.5-43.9-10.1-11-23.8-16.5-40.9-16.5s-30.6,5.5-40.9,16.5c-10.3,10.8-15.5,25.4-15.5,43.9v3c0,18.5,5.2,33.2,15.5,44.2,10.3,10.8,24,16.2,40.9,16.2ZM530.6,231.4V.4h26.1v231h-26.1ZM647.8,236c-11.2,0-21.5-2-30.7-5.9-9.2-4-16.5-9.7-21.8-17.2-5.3-7.5-7.9-16.6-7.9-27.4s2.6-20,7.9-27.1c5.3-7.3,12.5-12.7,21.8-16.2,9.2-3.7,19.6-5.6,31-5.6h54.5v-11.9c0-11.4-3.4-20.5-10.2-27.1-6.6-6.6-16.5-9.9-29.7-9.9s-23.1,3.2-30.4,9.6c-7.3,6.2-12.2,14.5-14.9,25.1l-24.4-7.9c2.6-9,6.8-17.2,12.5-24.4,5.7-7.5,13.3-13.4,22.8-17.8,9.7-4.6,21.2-6.9,34.7-6.9,20.7,0,36.7,5.4,48.2,16.2,11.4,10.6,17.2,25.5,17.2,44.9v72.9c0,6.6,3.1,9.9,9.2,9.9h14.9v22.1h-22.8c-7.3,0-13.1-2-17.5-5.9-4.4-4.2-6.6-9.7-6.6-16.5v-1.6h-4c-2.4,4.2-5.7,8.6-9.9,13.2-4,4.4-9.5,8-16.5,10.9-7,3.1-16.2,4.6-27.4,4.6ZM650.8,213.6c15.4,0,27.8-4.5,37.3-13.5,9.7-9.2,14.5-22.1,14.5-38.6v-3.6h-53.5c-10.3,0-18.9,2.3-25.7,6.9-6.6,4.4-9.9,11.1-9.9,20.1s3.4,16.1,10.2,21.1c7,5.1,16.1,7.6,27.1,7.6ZM785.9,169.7V.4h26.7v169.3h-26.7ZM799.1,236c-6.4,0-11.8-2.1-16.2-6.3-4.2-4.2-6.3-9.6-6.3-16.2s2.1-12,6.3-16.2c4.4-4.2,9.8-6.3,16.2-6.3s12,2.1,16.2,6.3c4.2,4.2,6.3,9.6,6.3,16.2s-2.1,12-6.3,16.2c-4.2,4.2-9.6,6.3-16.2,6.3Z"/>
</svg>