<svg width="827" height="236" viewBox="0 0 827 236" fill="none" xmlns="http://www.w3.org/2000/svg">
<path d="M0.510001 79.2V61.38H28.56L51.33 64.35L52.98 60.72L34.5 46.86L14.7 26.73L27.24 14.52L47.04 34.32L61.23 52.47L64.86 50.82L61.89 28.05V-1.57356e-05H79.71V28.05L76.74 50.82L80.37 52.47L94.56 34.32L114.36 14.52L126.9 26.73L107.1 46.86L88.62 60.72L90.27 64.35L113.04 61.38H141.09V79.2H113.04L90.27 76.56L88.62 79.86L107.1 94.05L126.9 113.85L114.36 126.39L94.56 106.59L80.37 88.11L76.74 89.76L79.71 112.53V140.58H61.89V112.53L64.86 89.76L61.23 88.11L47.04 106.59L27.24 126.39L14.7 113.85L34.5 94.05L52.98 79.86L51.33 76.56L28.56 79.2H0.510001ZM222.445 235.62C202.425 235.62 185.485 231 171.625 221.76C157.985 212.52 149.735 197.89 146.875 177.87L171.625 172.26C173.385 182.82 176.685 191.18 181.525 197.34C186.365 203.28 192.305 207.57 199.345 210.21C206.605 212.63 214.305 213.84 222.445 213.84C234.545 213.84 244.115 211.42 251.155 206.58C258.195 201.74 261.715 195.25 261.715 187.11C261.715 178.75 258.305 172.92 251.485 169.62C244.885 166.1 235.755 163.24 224.095 161.04L210.565 158.73C200.225 156.97 190.765 154.22 182.185 150.48C173.605 146.74 166.785 141.68 161.725 135.3C156.665 128.92 154.135 120.89 154.135 111.21C154.135 96.69 159.745 85.36 170.965 77.22C182.185 69.08 197.035 65.01 215.515 65.01C233.775 65.01 248.515 69.19 259.735 77.55C271.175 85.69 278.545 97.24 281.845 112.2L257.425 118.47C255.445 106.81 250.715 98.67 243.235 94.05C235.755 89.21 226.515 86.79 215.515 86.79C204.515 86.79 195.825 88.88 189.445 93.06C183.065 97.02 179.875 102.96 179.875 110.88C179.875 118.58 182.845 124.3 188.785 128.04C194.945 131.56 203.085 134.2 213.205 135.96L226.735 138.27C238.175 140.25 248.405 143 257.425 146.52C266.665 149.82 273.925 154.66 279.205 161.04C284.705 167.42 287.455 175.78 287.455 186.12C287.455 201.96 281.515 214.17 269.635 222.75C257.975 231.33 242.245 235.62 222.445 235.62ZM379.309 235.62C363.689 235.62 349.609 232.32 337.069 225.72C324.749 218.9 314.959 209.22 307.699 196.68C300.659 184.14 297.139 169.29 297.139 152.13V148.5C297.139 131.12 300.659 116.27 307.699 103.95C314.959 91.41 324.749 81.84 337.069 75.24C349.609 68.42 363.689 65.01 379.309 65.01C394.709 65.01 407.799 67.87 418.579 73.59C429.579 79.31 438.159 86.9 444.319 96.36C450.699 105.82 454.769 115.94 456.529 126.72L431.119 132C430.019 124.08 427.379 116.82 423.199 110.22C419.239 103.62 413.629 98.34 406.369 94.38C399.109 90.42 390.199 88.44 379.639 88.44C368.859 88.44 359.179 90.86 350.599 95.7C342.239 100.54 335.529 107.47 330.469 116.49C325.629 125.51 323.209 136.29 323.209 148.83V151.8C323.209 164.34 325.629 175.12 330.469 184.14C335.529 193.16 342.239 200.09 350.599 204.93C359.179 209.77 368.859 212.19 379.639 212.19C395.699 212.19 407.909 208.01 416.269 199.65C424.849 191.29 430.129 180.95 432.109 168.63L457.849 174.24C455.429 184.8 451.029 194.81 444.649 204.27C438.269 213.73 429.579 221.32 418.579 227.04C407.799 232.76 394.709 235.62 379.309 235.62ZM475.885 231V69.63H501.295V89.43H505.915C508.775 82.39 513.175 77.22 519.115 73.92C525.055 70.62 532.865 68.97 542.545 68.97H561.685V92.73H540.895C529.235 92.73 519.775 96.03 512.515 102.63C505.475 109.01 501.955 119.02 501.955 132.66V231H475.885ZM642.659 235.62C626.379 235.62 611.969 232.21 599.429 225.39C587.109 218.57 577.429 209 570.389 196.68C563.569 184.14 560.159 169.4 560.159 152.46V148.17C560.159 131.45 563.569 116.82 570.389 104.28C577.429 91.74 587.109 82.06 599.429 75.24C611.969 68.42 626.379 65.01 642.659 65.01C658.939 65.01 673.239 68.42 685.559 75.24C698.099 82.06 707.779 91.74 714.599 104.28C721.639 116.82 725.159 131.45 725.159 148.17V152.46C725.159 169.4 721.639 184.14 714.599 196.68C707.779 209 698.099 218.57 685.559 225.39C673.239 232.21 658.939 235.62 642.659 235.62ZM642.659 212.19C659.819 212.19 673.459 206.8 683.579 196.02C693.919 185.02 699.089 170.28 699.089 151.8V148.83C699.089 130.35 693.919 115.72 683.579 104.94C673.459 93.94 659.819 88.44 642.659 88.44C625.719 88.44 612.079 93.94 601.739 104.94C591.399 115.72 586.229 130.35 586.229 148.83V151.8C586.229 170.28 591.399 185.02 601.739 196.02C612.079 206.8 625.719 212.19 642.659 212.19ZM745.673 231V-1.57356e-05H771.743V231H745.673ZM800.162 231V-1.57356e-05H826.232V231H800.162Z" fill="white"/>
</svg>
